<svg width="341" height="67" viewBox="0 0 341 67" fill="none" xmlns="http://www.w3.org/2000/svg">
<path d="M20.696 7.192V67H27.992V7.192H48.248V0.567997H0.248V7.192H20.696ZM59.1313 67L63.9313 49.912H92.3473L97.1473 67H104.443L86.2033 0.567997H70.0753L51.8353 67H59.1313ZM80.6353 6.904L90.7153 43.288H65.5633L75.6433 6.904H80.6353ZM122.271 67V8.44H123.615L142.911 64.6H151.167L170.463 8.44H171.807V67H179.199V0.567997H165.855L147.039 56.728L128.223 0.567997H114.879V67H122.271ZM232.08 60.376H202.896V0.567997H195.504V67H232.08V60.376ZM281.857 67V60.472H248.833V36.472H276.097V30.04H248.833V7.096H281.857V0.567997H241.441V67H281.857ZM320.712 41.56H301.896V67H294.504V0.567997H319.08C326.184 0.567997 331.496 2.2 335.016 5.464C338.536 8.664 340.296 13.752 340.296 20.728C340.296 31.032 336.232 37.464 328.104 40.024L340.872 67H332.712L320.712 41.56ZM301.896 35.032H319.176C328.2 35.032 332.712 30.36 332.712 21.016C332.712 11.736 328.168 7.096 319.08 7.096H301.896V35.032Z" fill="black"/>
</svg>
